<svg xmlns="http://www.w3.org/2000/svg" xmlns:xlink="http://www.w3.org/1999/xlink" version="1.1" width="256" height="256" viewBox="0 0 256 256" xml:space="preserve">

<defs>
</defs>
<g style="stroke: none; stroke-width: 0; stroke-dasharray: none; stroke-linecap: butt; stroke-linejoin: miter; stroke-miterlimit: 10; fill: none; fill-rule: nonzero; opacity: 1;" transform="translate(1.4065934065934016 1.4065934065934016) scale(2.81 2.81)" >
	<path d="M 12.93 31.849 v -2.918 c 0 -0.98 0.795 -1.775 1.775 -1.775 h 73.519 c 0.98 0 1.775 0.795 1.775 1.775 v 32.138 c 0 0.98 -0.795 1.775 -1.775 1.775 H 64.28 H 14.705 c -0.98 0 -1.775 -0.795 -1.775 -1.775 v -2.918" style="stroke: none; stroke-width: 1; stroke-dasharray: none; stroke-linecap: butt; stroke-linejoin: miter; stroke-miterlimit: 10; fill: rgb(237,28,36); fill-rule: nonzero; opacity: 1;" transform=" matrix(1 0 0 1 0 0) " stroke-linecap="round" />
	<path d="M 28.446 37.389 H 17.222 l -1.158 -1.526 c -0.759 -0.999 -1.862 -1.633 -3.108 -1.784 c -1.248 -0.153 -2.469 0.2 -3.445 0.989 l -5.379 4.351 H 1.894 C 0.85 39.421 0 40.27 0 41.314 v 10.637 c 0 1.045 0.85 1.894 1.894 1.894 h 2.131 c 1.657 1.36 3.736 2.107 5.873 2.107 h 7.913 c 1.432 0 2.596 -1.165 2.596 -2.595 v -0.203 c 0 -0.599 -0.204 -1.151 -0.546 -1.591 h 0.043 c 1.431 0 2.596 -1.165 2.596 -2.595 v -0.203 c 0 -0.624 -0.22 -1.196 -0.588 -1.644 c 1.181 -0.243 2.073 -1.29 2.073 -2.543 v -0.203 c 0 -0.599 -0.204 -1.151 -0.546 -1.591 h 5.005 c 1.432 0 2.596 -1.165 2.596 -2.596 v -0.203 C 31.043 38.554 29.878 37.389 28.446 37.389 z" style="stroke: none; stroke-width: 1; stroke-dasharray: none; stroke-linecap: butt; stroke-linejoin: miter; stroke-miterlimit: 10; fill: rgb(255,196,119); fill-rule: nonzero; opacity: 1;" transform=" matrix(1 0 0 1 0 0) " stroke-linecap="round" />
	<path d="M 49.239 39.356 c 0 -3.063 -2.492 -5.555 -5.555 -5.555 h -7.206 c -1.104 0 -2 0.896 -2 2 V 45 v 9.199 c 0 1.104 0.896 2 2 2 h 7.206 c 3.063 0 5.555 -2.492 5.555 -5.555 v -2.09 c 0 -1.351 -0.486 -2.591 -1.292 -3.555 c 0.805 -0.964 1.292 -2.204 1.292 -3.555 V 39.356 z M 38.478 37.801 h 5.206 c 0.857 0 1.555 0.698 1.555 1.555 v 2.089 c 0 0.857 -0.698 1.555 -1.555 1.555 h -5.206 V 37.801 z M 45.239 50.645 c 0 0.857 -0.698 1.555 -1.555 1.555 h -5.206 V 47 h 5.206 c 0.857 0 1.555 0.697 1.555 1.555 V 50.645 z" style="stroke: none; stroke-width: 1; stroke-dasharray: none; stroke-linecap: butt; stroke-linejoin: miter; stroke-miterlimit: 10; fill: rgb(255,255,255); fill-rule: nonzero; opacity: 1;" transform=" matrix(1 0 0 1 0 0) " stroke-linecap="round" />
	<path d="M 59.977 56.199 c -4.069 0 -7.381 -3.091 -7.381 -6.89 V 35.801 c 0 -1.104 0.896 -2 2 -2 s 2 0.896 2 2 V 49.31 c 0 1.594 1.517 2.89 3.381 2.89 s 3.381 -1.296 3.381 -2.89 V 35.801 c 0 -1.104 0.896 -2 2 -2 s 2 0.896 2 2 V 49.31 C 67.357 53.108 64.046 56.199 59.977 56.199 z" style="stroke: none; stroke-width: 1; stroke-dasharray: none; stroke-linecap: butt; stroke-linejoin: miter; stroke-miterlimit: 10; fill: rgb(255,255,255); fill-rule: nonzero; opacity: 1;" transform=" matrix(1 0 0 1 0 0) " stroke-linecap="round" />
	<path d="M 78.094 56.199 c -1.104 0 -2 -0.896 -2 -2 v -9.207 l -5.077 -8.132 c -0.585 -0.937 -0.3 -2.17 0.637 -2.755 c 0.939 -0.586 2.172 -0.3 2.756 0.637 l 5.381 8.618 c 0.198 0.317 0.304 0.685 0.304 1.059 v 9.78 C 80.094 55.304 79.198 56.199 78.094 56.199 z" style="stroke: none; stroke-width: 1; stroke-dasharray: none; stroke-linecap: butt; stroke-linejoin: miter; stroke-miterlimit: 10; fill: rgb(255,255,255); fill-rule: nonzero; opacity: 1;" transform=" matrix(1 0 0 1 0 0) " stroke-linecap="round" />
	<path d="M 78.092 46.419 c -0.361 0 -0.728 -0.098 -1.058 -0.304 c -0.937 -0.585 -1.222 -1.818 -0.637 -2.755 l 5.381 -8.618 c 0.584 -0.937 1.816 -1.223 2.756 -0.637 c 0.937 0.585 1.222 1.818 0.637 2.755 l -5.381 8.618 C 79.411 46.086 78.759 46.419 78.092 46.419 z" style="stroke: none; stroke-width: 1; stroke-dasharray: none; stroke-linecap: butt; stroke-linejoin: miter; stroke-miterlimit: 10; fill: rgb(255,255,255); fill-rule: nonzero; opacity: 1;" transform=" matrix(1 0 0 1 0 0) " stroke-linecap="round" />
</g>
</svg>